<svg width="282" height="90" viewBox="0 0 282 90" fill="none" xmlns="http://www.w3.org/2000/svg">
<g clip-path="url(#clip0_1_3)">
<path d="M54.5057 55.1613C53.5166 64.813 45.3036 71.767 35.6519 71.3174C35.2023 71.2874 34.7527 71.2575 34.3031 71.1975C33.7935 71.1376 33.3139 71.0476 32.8044 70.9577C30.7361 70.5381 28.8178 69.7587 27.0493 68.7396C26.6596 68.4998 26.24 68.2301 25.8803 67.9603C21.3542 64.7231 18.3567 59.4776 18.2668 53.5127C18.1769 47.8176 18.1469 42.1225 18.2668 36.4273C18.3867 30.4325 21.3242 25.217 25.8803 22.0097C26.27 21.7399 26.6596 21.4702 27.0793 21.2304C28.8178 20.1813 30.7361 19.4319 32.8044 19.0123C33.2839 18.9224 33.7635 18.8324 34.2431 18.7725L39.2488 21.5901C39.069 21.5601 38.8891 21.5301 38.6793 21.5002C37.2405 21.2903 35.7418 21.2604 34.2431 21.4702C33.7336 21.5301 33.254 21.62 32.7444 21.7399C32.3547 21.8299 31.9651 21.9498 31.5754 22.0697C25.4906 24.048 21.0245 29.863 20.9046 36.5173C20.8146 42.1225 20.8146 47.6977 20.9046 53.3029C20.9945 60.1969 25.4607 65.922 31.6653 67.9003C32.055 68.0202 32.4447 68.1401 32.8343 68.2301C34.0033 68.4998 35.2323 68.6497 36.4912 68.6497C37.2405 68.6497 37.9899 68.5897 38.7093 68.4998C39.1889 68.4399 39.6685 68.3499 40.1481 68.2301C46.8323 66.5815 51.808 60.6166 51.9579 53.3628C51.9879 51.4145 52.0478 49.4662 51.9279 47.5178C51.898 46.9483 51.5083 46.169 51.0287 45.8692C47.7315 43.6212 44.3744 41.433 40.9873 39.3348C40.5977 39.0951 39.7884 39.0951 39.4287 39.3348C36.1015 41.463 32.8343 43.6811 29.5971 45.8992C29.2674 46.139 28.8477 46.5586 28.8477 46.9183C28.7878 50.6052 28.8178 54.292 28.8178 58.0987H46.7424C46.6225 58.8481 46.4427 59.4176 46.1729 59.8373C45.9331 60.2269 45.6333 60.4667 45.2437 60.6166C45.1538 60.8564 45.0339 61.0962 44.914 61.336C44.6142 61.3959 44.2545 61.4259 43.8948 61.4259H41.7367C41.8566 61.2161 41.9765 61.0362 42.0964 60.8264H26.21C26.1501 60.2269 26.0901 59.6874 26.0901 59.1778C26.0901 54.8915 26.1201 50.5752 26.0601 46.2889C26.0601 45.3297 26.3299 44.7602 27.1392 44.2207C31.1558 41.6129 35.1423 38.9452 39.099 36.2175C39.8783 35.678 40.4178 35.678 41.2271 36.1875C45.3036 38.8852 49.4101 41.5529 53.5166 44.1907C54.3259 44.7002 54.7156 45.2398 54.6556 46.2289C54.5957 49.1664 54.8055 52.1938 54.5057 55.1613Z" fill="#228C22"/>
<path d="M54.5057 55.1613C53.5166 64.813 45.3036 71.767 35.6519 71.3174C35.2023 71.2874 34.7527 71.2575 34.3031 71.1975C33.7935 71.1376 33.3139 71.0476 32.8044 70.9577C30.7361 70.5381 28.8178 69.7588 27.0493 68.7396C26.6596 68.4998 26.24 68.2301 25.8803 67.9603C21.3542 64.7231 18.3567 59.4776 18.2668 53.5127C18.1769 47.8176 18.1469 42.1225 18.2668 36.4274C18.3867 30.4325 21.3242 25.217 25.8803 22.0097C26.27 21.74 26.6596 21.4702 27.0793 21.2304C28.8178 20.1813 30.7361 19.4319 32.8044 19.0123C33.2839 18.9224 33.7635 18.8324 34.2431 18.7725C34.8426 18.6826 35.4721 18.6526 36.1015 18.6226C45.5734 18.3229 53.7264 25.6666 54.6256 35.2584C54.6556 35.4382 54.6256 35.648 54.6256 36.0677C52.9171 35.1984 51.808 34.3591 51.2985 32.5007C49.7998 26.9855 45.4235 23.0288 40.0881 21.7699C39.8183 21.71 39.5486 21.65 39.2488 21.5901C39.069 21.5601 38.8891 21.5301 38.6793 21.5002C37.2405 21.2903 35.7418 21.2604 34.2431 21.4702C33.7336 21.5301 33.254 21.6201 32.7444 21.74C32.3547 21.8299 31.9651 21.9498 31.5754 22.0697C25.4906 24.048 21.0245 29.863 20.9046 36.5173C20.8146 42.1225 20.8146 47.6977 20.9046 53.3029C20.9945 60.197 25.4607 65.922 31.6653 67.9003C32.055 68.0202 32.4447 68.1401 32.8343 68.2301C34.0033 68.4998 35.2323 68.6497 36.4912 68.6497C37.2405 68.6497 37.9899 68.5898 38.7093 68.4998C39.1889 68.4399 39.6685 68.35 40.1481 68.2301C46.8323 66.5815 51.808 60.6166 51.9579 53.3628C51.9879 51.4145 52.0478 49.4662 51.9279 47.5178C51.898 46.9483 51.5083 46.169 51.0287 45.8692C47.7315 43.6212 44.3744 41.4331 40.9873 39.3349C40.5977 39.0951 39.7884 39.0951 39.4287 39.3349C36.1015 41.463 32.8343 43.6811 29.5971 45.8992C29.2674 46.139 28.8477 46.5587 28.8477 46.9183C28.7878 50.6052 28.8178 54.292 28.8178 58.0988H46.7424C46.6225 58.8481 46.4427 59.4176 46.1729 59.8373C45.9331 60.2269 45.6333 60.4667 45.2437 60.6166C44.884 60.7665 44.4344 60.8264 43.8948 60.8264H26.21C26.1501 60.2269 26.0901 59.6874 26.0901 59.1778C26.0901 54.8915 26.1201 50.5752 26.0601 46.2889C26.0601 45.3297 26.3299 44.7602 27.1392 44.2207C31.1558 41.6129 35.1423 38.9452 39.099 36.2175C39.8783 35.678 40.4178 35.678 41.2271 36.1876C45.3036 38.8852 49.4101 41.553 53.5166 44.1907C54.3259 44.7003 54.7156 45.2398 54.6556 46.2289C54.5957 49.1664 54.8055 52.1938 54.5057 55.1613Z" fill="#228C22"/>
<path d="M40.8075 46.4088C41.6468 46.4088 42.4261 46.4088 43.2654 46.4088C43.2654 47.2481 43.2654 47.9974 43.2654 48.7468C40.7475 49.4062 40.5377 49.1964 40.8075 46.4088Z" fill="#228C22"/>
<path d="M40.7476 52.2838C40.7476 51.4145 40.7476 50.6951 40.7476 49.8558C41.5868 49.8558 42.3362 49.8558 43.2054 49.8558C43.2054 50.6352 43.2054 51.3845 43.2054 52.2838C42.4861 52.2838 41.6768 52.2838 40.7476 52.2838Z" fill="#228C22"/>
<path d="M37.3604 48.8667C37.3604 48.0274 37.3604 47.278 37.3604 46.4088C38.1697 46.4088 38.919 46.4088 39.7883 46.4088C39.7883 47.2181 39.7883 47.9974 39.7883 48.8667C38.979 48.8667 38.2296 48.8667 37.3604 48.8667Z" fill="#228C22"/>
<path d="M39.7882 52.3137C38.9489 52.3137 38.1996 52.3137 37.3303 52.3137C37.3303 51.4744 37.3303 50.6951 37.3303 49.8258C38.1696 49.8258 38.919 49.8258 39.7882 49.8258C39.7882 50.6951 39.7882 51.4444 39.7882 52.3137Z" fill="#228C22"/>
<path d="M39.8183 22.3095C38.7092 22.0697 37.5702 21.9198 36.3712 21.9198C35.7118 21.9198 35.0224 21.9498 34.333 22.0397C34.1831 22.0697 34.0632 22.0697 33.9133 22.0996C39.5485 24.1978 43.655 29.5333 43.9247 35.8279H46.5625C46.5025 30.3725 43.8648 25.4867 39.8183 22.3095ZM13.261 53.4827V36.5173C13.261 29.1136 18.5665 22.879 25.5805 21.4702C27.289 20.2712 29.2373 19.342 31.3355 18.7725C30.6161 18.6826 29.8668 18.6226 29.1174 18.6226H28.0983C18.4766 18.6226 10.6233 26.4759 10.6233 36.0976V53.9023C10.6233 63.5241 18.4766 71.3773 28.0983 71.3773H29.1174C29.8668 71.3773 30.6161 71.3174 31.3355 71.2275C29.2973 70.658 27.3789 69.7288 25.6704 68.5298C18.6264 67.181 13.261 60.9163 13.261 53.4827Z" fill="#228C22"/>
<path d="M34.2729 21.4702C33.7634 21.5301 33.2838 21.6201 32.7742 21.74C31.4553 21.3803 30.0466 21.1704 28.6078 21.1704C28.0982 21.1704 27.5887 21.2004 27.0791 21.2604C28.8176 20.2113 30.736 19.4619 32.8042 19.0423C34.9324 19.4919 36.9107 20.3611 38.6791 21.5301C37.2704 21.2903 35.7716 21.2903 34.2729 21.4702Z" fill="#228C22"/>
<path d="M46.5925 35.8579H43.9548C43.685 29.5633 39.5785 24.2278 33.9434 22.1296C34.0932 22.0997 34.2131 22.0997 34.363 22.0697C35.0224 21.9798 35.7118 21.9498 36.4013 21.9498C37.6002 21.9498 38.7392 22.0697 39.8483 22.3395C43.8648 25.4868 46.5026 30.3726 46.5925 35.8579Z" fill="#228C22"/>
<path d="M25.6704 68.5598C27.3789 69.7587 29.2673 70.658 31.3355 71.2575C30.6161 71.3474 29.8668 71.4073 29.1174 71.4073H28.0983C18.4766 71.3774 10.6233 63.5241 10.6233 53.9023V36.0976C10.6233 26.4759 18.4766 18.6226 28.0983 18.6226H29.1174C29.8668 18.6226 30.6161 18.6826 31.3355 18.7725C29.2373 19.372 27.289 20.2712 25.5805 21.4702C18.5665 22.879 13.261 29.1136 13.261 36.5173V53.4827C13.261 60.9163 18.6264 67.181 25.6704 68.5598Z" fill="#228C22"/>
<path d="M38.7093 68.4998C36.9408 69.6688 34.9326 70.5381 32.8044 70.9877C30.7362 70.5681 28.8178 69.7887 27.0493 68.7696C27.5589 68.8296 28.0684 68.8595 28.608 68.8595C30.0767 68.8595 31.4855 68.6497 32.8344 68.26C34.0034 68.5298 35.2323 68.6797 36.4912 68.6797C37.2406 68.6497 37.9899 68.5898 38.7093 68.4998Z" fill="#228C22"/>
<path d="M46.0829 58.0388C45.8731 58.9081 45.6034 59.7474 45.2437 60.5567C45.1537 60.7965 45.0338 61.0362 44.9139 61.276C43.745 63.7939 41.9765 65.982 39.8183 67.6606C38.7392 67.9004 37.6302 68.0502 36.4612 68.0502H36.4012C35.562 68.0502 34.7527 67.9903 33.9434 67.8404C37.2106 66.6115 39.9382 64.3034 41.7367 61.366C41.8566 61.1561 41.9765 60.9763 42.0964 60.7665C42.576 59.8972 42.9656 58.998 43.2654 58.0388H46.0829Z" fill="#228C22"/>
</g>
<path d="M79.7213 54.5369C77.7284 54.5369 75.9581 54.1735 74.4107 53.4466C72.8632 52.6963 71.6557 51.6647 70.7882 50.3517C69.9207 49.0152 69.4869 47.5029 69.4869 45.8148V37.9367C69.4869 36.2486 69.9089 34.748 70.753 33.435C71.6205 32.122 72.8163 31.1021 74.3403 30.3752C75.8644 29.6484 77.6111 29.285 79.5806 29.285C81.5501 29.285 83.2969 29.6015 84.8209 30.2345C86.345 30.8442 87.529 31.7 88.3731 32.8019C89.2406 33.9039 89.6744 35.1583 89.6744 36.5651C89.6744 37.2685 89.4399 37.8195 88.971 38.2181C88.5021 38.6167 87.8807 38.816 87.107 38.816C86.9429 38.816 86.6967 38.7925 86.3684 38.7456C86.4153 38.4643 86.4388 38.0188 86.4388 37.4092C86.4388 36.401 86.1457 35.4983 85.5595 34.7011C84.9968 33.9039 84.1879 33.2826 83.1328 32.8371C82.1011 32.3916 80.9171 32.1689 79.5806 32.1689C78.2676 32.1689 77.0953 32.4151 76.0637 32.9075C75.032 33.3764 74.2231 34.0563 73.6369 34.9473C73.0742 35.8148 72.7929 36.8113 72.7929 37.9367V45.8148C72.7929 46.9402 73.0859 47.9484 73.6721 48.8394C74.2583 49.7304 75.0789 50.422 76.134 50.9144C77.1891 51.4068 78.3849 51.653 79.7213 51.653C81.0343 51.653 82.2067 51.4302 83.2383 50.9847C84.2934 50.5393 85.1023 49.9062 85.665 49.0856C86.2512 48.2649 86.5443 47.3388 86.5443 46.3072V44.3376H82.1129C81.386 44.3376 80.7999 44.0915 80.3544 43.5991C79.9089 43.0833 79.6861 42.415 79.6861 41.5944H88.2676C88.7365 41.5944 89.1117 41.7351 89.393 42.0164C89.6978 42.2978 89.8502 42.6729 89.8502 43.1419V46.3423C89.8502 47.9367 89.4165 49.3552 88.5489 50.5979C87.7049 51.8405 86.5091 52.8136 84.9616 53.517C83.4376 54.1969 81.6908 54.5369 79.7213 54.5369ZM101.89 39.027C100.577 39.027 99.4868 39.4256 98.6193 40.2228C97.7518 40.9965 97.318 41.9461 97.318 43.0715V52.286C97.318 53.0598 97.0601 53.6342 96.5443 54.0093C96.0519 54.361 95.2899 54.5369 94.2583 54.5369V38.9215C94.2583 37.1864 95.243 36.3189 97.2125 36.3189V38.4643C96.8374 38.8629 96.5795 39.2146 96.4388 39.5194L96.5795 39.6601C98.0801 37.4326 99.9558 36.3189 102.207 36.3189C103.051 36.3189 103.696 36.5299 104.141 36.952C104.586 37.3506 104.809 37.843 104.809 38.4291C104.809 38.8512 104.704 39.2263 104.493 39.5546C103.836 39.2029 102.969 39.027 101.89 39.027ZM114.001 54.5369C112.571 54.5369 111.293 54.2673 110.167 53.728C109.042 53.1653 108.163 52.4033 107.53 51.442C106.897 50.4572 106.58 49.3552 106.58 48.136V42.9309C106.58 41.6882 106.908 40.5628 107.565 39.5546C108.245 38.5463 109.147 37.7609 110.273 37.1982C111.422 36.612 112.664 36.3189 114.001 36.3189C115.337 36.3189 116.557 36.6003 117.659 37.163C118.784 37.7257 119.663 38.4995 120.296 39.4842C120.953 40.469 121.281 41.5827 121.281 42.8253V45.0762C121.281 45.4514 121.14 45.7679 120.859 46.0258C120.578 46.2837 120.238 46.4127 119.839 46.4127H109.57V47.9953C109.57 49.1911 109.945 50.1524 110.695 50.8792C111.469 51.6061 112.571 51.9695 114.001 51.9695C115.431 51.9695 116.521 51.653 117.272 51.0199C118.022 50.3869 118.397 49.5311 118.397 48.4525C119.101 48.4056 119.687 48.5463 120.156 48.8746C120.648 49.1794 120.894 49.6366 120.894 50.2462C120.894 50.9965 120.566 51.6999 119.909 52.3564C119.276 53.0129 118.432 53.5404 117.377 53.939C116.322 54.3376 115.197 54.5369 114.001 54.5369ZM118.432 44.0211V42.8253C118.432 41.653 118.022 40.7034 117.201 39.9766C116.404 39.2263 115.337 38.8512 114.001 38.8512C112.664 38.8512 111.586 39.2263 110.765 39.9766C109.968 40.7034 109.57 41.653 109.57 42.8253V44.0211H118.432ZM132.41 54.5369C130.98 54.5369 129.702 54.2673 128.577 53.728C127.451 53.1653 126.572 52.4033 125.939 51.442C125.306 50.4572 124.989 49.3552 124.989 48.136V42.9309C124.989 41.6882 125.318 40.5628 125.974 39.5546C126.654 38.5463 127.557 37.7609 128.682 37.1982C129.831 36.612 131.074 36.3189 132.41 36.3189C133.747 36.3189 134.966 36.6003 136.068 37.163C137.193 37.7257 138.072 38.4995 138.706 39.4842C139.362 40.469 139.69 41.5827 139.69 42.8253V45.0762C139.69 45.4514 139.55 45.7679 139.268 46.0258C138.987 46.2837 138.647 46.4127 138.248 46.4127H127.979V47.9953C127.979 49.1911 128.354 50.1524 129.104 50.8792C129.878 51.6061 130.98 51.9695 132.41 51.9695C133.84 51.9695 134.931 51.653 135.681 51.0199C136.431 50.3869 136.806 49.5311 136.806 48.4525C137.51 48.4056 138.096 48.5463 138.565 48.8746C139.057 49.1794 139.303 49.6366 139.303 50.2462C139.303 50.9965 138.975 51.6999 138.319 52.3564C137.686 53.0129 136.842 53.5404 135.786 53.939C134.731 54.3376 133.606 54.5369 132.41 54.5369ZM136.842 44.0211V42.8253C136.842 41.653 136.431 40.7034 135.611 39.9766C134.813 39.2263 133.747 38.8512 132.41 38.8512C131.074 38.8512 129.995 39.2263 129.174 39.9766C128.377 40.7034 127.979 41.653 127.979 42.8253V44.0211H136.842ZM143.75 38.9215C143.75 37.1864 144.735 36.3189 146.704 36.3189V38.5698C146.493 38.7808 146.247 39.0973 145.966 39.5194L146.107 39.6601C146.81 38.6753 147.724 37.8781 148.85 37.2685C149.975 36.6355 151.194 36.3189 152.507 36.3189C154.407 36.3189 155.907 36.8816 157.009 38.0071C158.111 39.1325 158.662 40.5862 158.662 42.3681V52.286C158.662 53.0598 158.404 53.6342 157.888 54.0093C157.396 54.361 156.634 54.5369 155.602 54.5369V42.6847C155.602 41.5592 155.286 40.6683 154.653 40.0118C154.02 39.3553 153.058 39.027 151.769 39.027C150.901 39.027 150.081 39.2146 149.307 39.5897C148.557 39.9414 147.947 40.4338 147.478 41.0669C147.033 41.6765 146.81 42.3447 146.81 43.0715V52.286C146.81 53.0598 146.552 53.6342 146.036 54.0093C145.544 54.361 144.782 54.5369 143.75 54.5369V38.9215ZM182.104 54.5369C180.134 54.5369 178.376 54.1735 176.828 53.4466C175.281 52.6963 174.073 51.6647 173.206 50.3517C172.362 49.0152 171.94 47.5029 171.94 45.8148V37.9367C171.94 36.2486 172.362 34.748 173.206 33.435C174.073 32.122 175.269 31.1021 176.793 30.3752C178.317 29.6484 180.064 29.285 182.033 29.285C184.003 29.285 185.75 29.6015 187.274 30.2345C188.798 30.8442 189.982 31.7 190.826 32.8019C191.693 33.9039 192.127 35.17 192.127 36.6003C192.127 37.3037 191.893 37.8547 191.424 38.2533C190.955 38.6519 190.333 38.8512 189.56 38.8512C189.396 38.8512 189.149 38.8277 188.821 38.7808C188.868 38.4995 188.891 38.054 188.891 37.4444C188.891 36.4362 188.598 35.5335 188.012 34.7363C187.45 33.9391 186.641 33.3178 185.586 32.8723C184.554 32.4268 183.37 32.2041 182.033 32.2041C180.72 32.2041 179.548 32.4502 178.516 32.9426C177.485 33.4116 176.676 34.0915 176.09 34.9825C175.527 35.85 175.246 36.8348 175.246 37.9367V45.8148C175.246 46.9402 175.527 47.9484 176.09 48.8394C176.676 49.7069 177.485 50.3869 178.516 50.8792C179.571 51.3716 180.767 51.6178 182.104 51.6178C183.464 51.6178 184.671 51.3951 185.726 50.9496C186.781 50.5041 187.602 49.8945 188.188 49.1207C188.774 48.3236 189.067 47.4091 189.067 46.3775C189.067 46.0024 189.044 45.5569 188.997 45.041C189.325 44.9942 189.56 44.9707 189.7 44.9707C190.474 44.9707 191.095 45.1934 191.564 45.6389C192.057 46.0844 192.303 46.6823 192.303 47.4326C192.303 48.8159 191.869 50.0469 191.002 51.1254C190.134 52.204 188.927 53.048 187.379 53.6577C185.855 54.2438 184.097 54.5369 182.104 54.5369ZM201.278 54.5369C199.262 54.5369 197.632 53.9976 196.39 52.9191C195.171 51.8405 194.561 50.422 194.561 48.6635C194.561 46.8816 195.206 45.4514 196.495 44.3728C197.785 43.2708 199.485 42.7198 201.595 42.7198C203.846 42.7198 205.698 43.517 207.152 45.1114L207.292 44.9707C207.035 44.6893 206.741 44.3963 206.413 44.0915V42.6143C206.413 41.4186 206.038 40.4924 205.288 39.8359C204.537 39.1794 203.471 38.8512 202.087 38.8512C199.625 38.8512 197.867 39.8242 196.812 41.7703C196.437 41.5827 196.12 41.3365 195.862 41.0317C195.628 40.7034 195.511 40.3752 195.511 40.0469C195.511 39.4139 195.827 38.816 196.46 38.2533C197.093 37.6671 197.926 37.1982 198.957 36.8465C200.012 36.4948 201.114 36.3189 202.263 36.3189C204.491 36.3189 206.237 36.8699 207.503 37.9719C208.793 39.0739 209.438 40.5979 209.438 42.544V52.1805C209.438 53.0011 209.203 53.599 208.734 53.9742C208.265 54.3493 207.527 54.5369 206.519 54.5369V52.8839C207.011 52.3681 207.281 52.0633 207.328 51.9695L207.187 51.8288C205.663 53.6342 203.693 54.5369 201.278 54.5369ZM201.806 52.1102C203.26 52.1102 204.397 51.8054 205.217 51.1958C206.061 50.5862 206.484 49.7421 206.484 48.6635C206.484 47.585 206.073 46.7292 205.253 46.0961C204.432 45.4631 203.307 45.1466 201.876 45.1466C200.54 45.1466 199.485 45.4631 198.711 46.0961C197.961 46.7057 197.586 47.5615 197.586 48.6635C197.586 49.7655 197.949 50.6213 198.676 51.2309C199.426 51.8171 200.469 52.1102 201.806 52.1102ZM220.043 54.5369C218.848 54.5369 217.722 54.361 216.667 54.0093C215.612 53.6342 214.756 53.1067 214.1 52.4267C213.467 51.7468 213.15 50.9496 213.15 50.0352C213.15 48.9097 213.83 48.3001 215.19 48.2063C215.424 49.5193 215.975 50.4924 216.843 51.1254C217.734 51.735 218.859 52.0398 220.219 52.0398C221.579 52.0398 222.634 51.8405 223.385 51.442C224.135 51.0434 224.51 50.4337 224.51 49.6131C224.51 49.027 224.358 48.558 224.053 48.2063C223.748 47.8312 223.256 47.5147 222.576 47.2567C221.919 46.9754 220.97 46.7057 219.727 46.4478C218.179 46.0961 216.948 45.721 216.034 45.3224C215.12 44.9238 214.416 44.3963 213.924 43.7398C213.455 43.0833 213.22 42.2157 213.22 41.1372C213.22 40.2228 213.502 39.4021 214.065 38.6753C214.627 37.925 215.401 37.3506 216.386 36.952C217.394 36.5299 218.531 36.3189 219.797 36.3189C220.97 36.3189 222.072 36.4831 223.103 36.8113C224.158 37.1396 225.002 37.6085 225.635 38.2181C226.292 38.8277 226.62 39.5311 226.62 40.3283C226.62 40.8676 226.409 41.3013 225.987 41.6296C225.565 41.9344 224.979 42.1102 224.229 42.1571C224.158 41.1255 223.736 40.3166 222.963 39.7304C222.212 39.1208 221.157 38.816 219.797 38.816C218.672 38.816 217.781 39.027 217.124 39.449C216.468 39.8711 216.14 40.4338 216.14 41.1372C216.14 41.8875 216.444 42.4502 217.054 42.8253C217.687 43.177 218.754 43.517 220.254 43.8453C222.716 44.3376 224.522 45.0176 225.671 45.8851C226.843 46.7292 227.429 47.9367 227.429 49.5076C227.429 51.102 226.784 52.3446 225.495 53.2356C224.205 54.1031 222.388 54.5369 220.043 54.5369ZM236.888 54.5369C235.223 54.5369 233.98 54.068 233.16 53.1301C232.339 52.1688 231.929 50.9144 231.929 49.3669V39.0973H228.658C228.658 38.3002 228.834 37.6906 229.185 37.2685C229.537 36.8465 230.018 36.6355 230.627 36.6355H231.964V33.2943C231.964 32.5206 232.21 31.9579 232.702 31.6062C233.218 31.231 233.98 31.0435 234.988 31.0435V36.6355H239.666C239.666 38.2767 238.927 39.0973 237.45 39.0973H235.024V49.2614C235.024 50.1993 235.188 50.8675 235.516 51.2661C235.868 51.6412 236.489 51.8288 237.38 51.8288C238.201 51.8288 238.974 51.6178 239.701 51.1958C240.006 51.5006 240.158 51.9109 240.158 52.4267C240.158 52.9894 239.865 53.4818 239.279 53.9038C238.693 54.3259 237.896 54.5369 236.888 54.5369ZM248.967 54.5369C247.255 54.5369 245.978 54.068 245.134 53.1301C244.289 52.1688 243.867 50.9144 243.867 49.3669V31.5358C243.867 30.7621 244.114 30.1994 244.606 29.8477C245.122 29.4725 245.896 29.285 246.927 29.285V49.2614C246.927 50.1758 247.115 50.8323 247.49 51.2309C247.865 51.6295 248.486 51.8288 249.354 51.8288C250.221 51.8288 251.019 51.6178 251.745 51.1958C252.05 51.5475 252.203 51.9578 252.203 52.4267C252.203 52.9894 251.91 53.4818 251.323 53.9038C250.737 54.3259 249.952 54.5369 248.967 54.5369ZM262.064 54.5369C260.634 54.5369 259.356 54.2673 258.231 53.728C257.106 53.1653 256.226 52.4033 255.593 51.442C254.96 50.4572 254.644 49.3552 254.644 48.136V42.9309C254.644 41.6882 254.972 40.5628 255.628 39.5546C256.308 38.5463 257.211 37.7609 258.336 37.1982C259.485 36.612 260.728 36.3189 262.064 36.3189C263.401 36.3189 264.62 36.6003 265.722 37.163C266.848 37.7257 267.727 38.4995 268.36 39.4842C269.016 40.469 269.345 41.5827 269.345 42.8253V45.0762C269.345 45.4514 269.204 45.7679 268.923 46.0258C268.641 46.2837 268.301 46.4127 267.903 46.4127H257.633V47.9953C257.633 49.1911 258.008 50.1524 258.759 50.8792C259.532 51.6061 260.634 51.9695 262.064 51.9695C263.495 51.9695 264.585 51.653 265.335 51.0199C266.086 50.3869 266.461 49.5311 266.461 48.4525C267.164 48.4056 267.75 48.5463 268.219 48.8746C268.712 49.1794 268.958 49.6366 268.958 50.2462C268.958 50.9965 268.63 51.6999 267.973 52.3564C267.34 53.0129 266.496 53.5404 265.441 53.939C264.386 54.3376 263.26 54.5369 262.064 54.5369ZM266.496 44.0211V42.8253C266.496 41.653 266.086 40.7034 265.265 39.9766C264.468 39.2263 263.401 38.8512 262.064 38.8512C260.728 38.8512 259.649 39.2263 258.829 39.9766C258.032 40.7034 257.633 41.653 257.633 42.8253V44.0211H266.496Z" fill="#228C22"/>
<path d="M71.6942 64.2471H69.7823V67.7796H68.5162V58.9168H73.0616L74.5303 59.7651V63.3988L73.0616 64.2471L75.1 67.7796H73.6946L71.6942 64.2471ZM69.7823 60.0563V63.1076H73.2641V60.0563H69.7823ZM81.6873 66.6781V67.7796H78.1548L76.6861 66.9313V62.234L78.1548 61.3857H80.2186L81.6873 62.234V65.0448H77.9142V66.6781H81.6873ZM77.9142 62.4872V63.9433H80.4591V62.4872H77.9142ZM84.684 65.1841V66.7414H87.2289V65.1841H84.684ZM84.9246 67.8429L83.4559 66.9946V64.9308L84.9246 64.0825H87.2289V62.5506H84.0889V61.449H86.9883L88.457 62.2973V67.8429H88.1278L87.2289 67.3238L86.3299 67.8429H84.9246ZM91.9535 67.7796L90.4848 66.9313V58.537H91.7129V66.6781H93.2322V67.7796H91.9535ZM93.9968 62.5506V61.449H95.1616V60.3855L96.3897 59.6765V61.449H97.909V62.5506H96.3897V66.6781H97.909V67.7796H96.6303L95.1616 66.9313V62.5506H93.9968ZM100.266 70.3118L101.368 67.4884L98.9242 61.449H100.152L101.95 65.9564H101.976L103.761 61.449H104.989L101.469 70.3118H100.266Z" fill="#228C22"/>
<defs>
<clipPath id="clip0_1_3">
<rect width="44.0922" height="52.7547" fill="white" transform="translate(10.6233 18.6226)"/>
</clipPath>
</defs>
</svg>
