<svg width="861" height="183" viewBox="0 0 861 183" fill="none" xmlns="http://www.w3.org/2000/svg">
<g clip-path="url(#clip0_1_303)">
<path d="M496.651 122.492C493.634 151.93 468.584 173.139 439.146 171.768C437.775 171.677 436.404 171.585 435.032 171.402C433.478 171.22 432.016 170.945 430.461 170.671C424.153 169.391 418.302 167.014 412.908 163.906C411.72 163.174 410.44 162.352 409.343 161.529C395.538 151.655 386.396 135.657 386.122 117.464C385.848 100.094 385.756 82.7235 386.122 65.3534C386.488 47.0691 395.447 31.1618 409.343 21.3797C410.531 20.5569 411.72 19.7341 413 19.0027C418.302 15.803 424.153 13.5174 430.461 12.2375C431.924 11.9633 433.387 11.689 434.85 11.5061L450.117 20.0998C449.568 20.0084 449.02 19.9169 448.38 19.8255C443.992 19.1856 439.421 19.0941 434.85 19.7341C433.295 19.9169 431.833 20.1912 430.279 20.5569C429.09 20.8311 427.902 21.1968 426.713 21.5625C408.155 27.5963 394.533 45.3321 394.167 65.6277C393.893 82.7235 393.893 99.7279 394.167 116.824C394.441 137.851 408.063 155.312 426.987 161.346C428.176 161.712 429.364 162.077 430.553 162.352C434.118 163.174 437.867 163.632 441.706 163.632C443.992 163.632 446.277 163.449 448.471 163.174C449.934 162.992 451.397 162.717 452.86 162.352C473.247 157.324 488.423 139.131 488.88 117.007C488.971 111.064 489.154 105.122 488.788 99.1794C488.697 97.4424 487.508 95.0654 486.046 94.1512C475.989 87.2946 465.75 80.6208 455.419 74.2213C454.231 73.49 451.763 73.49 450.666 74.2213C440.518 80.7123 430.553 87.4775 420.679 94.2426C419.674 94.974 418.394 96.2539 418.394 97.351C418.211 108.596 418.302 119.841 418.302 131.451H472.972C472.607 133.737 472.058 135.474 471.235 136.754C470.504 137.942 469.59 138.674 468.401 139.131C468.127 139.862 467.761 140.593 467.396 141.325C466.481 141.508 465.384 141.599 464.287 141.599H457.705C458.071 140.959 458.436 140.411 458.802 139.771H410.349C410.166 137.942 409.983 136.297 409.983 134.742C409.983 121.669 410.074 108.504 409.892 95.4311C409.892 92.5056 410.714 90.7686 413.183 89.123C425.433 81.1694 437.592 73.0328 449.66 64.7135C452.037 63.0679 453.682 63.0679 456.151 64.6221C468.584 72.85 481.109 80.9865 493.634 89.0316C496.102 90.5858 497.291 92.2314 497.108 95.2483C496.925 104.208 497.565 113.441 496.651 122.492Z" fill="#228C22"/>
<path d="M496.651 122.492C493.634 151.93 468.584 173.139 439.146 171.768C437.775 171.677 436.404 171.585 435.032 171.402C433.478 171.22 432.016 170.945 430.461 170.671C424.153 169.391 418.302 167.014 412.908 163.906C411.72 163.175 410.44 162.352 409.343 161.529C395.538 151.655 386.396 135.657 386.122 117.464C385.848 100.094 385.756 82.7236 386.122 65.3535C386.488 47.0692 395.447 31.1618 409.343 21.3797C410.531 20.5569 411.72 19.7341 413 19.0027C418.302 15.803 424.153 13.5174 430.461 12.2375C431.924 11.9633 433.387 11.689 434.85 11.5062C436.678 11.2319 438.598 11.1405 440.518 11.0491C469.407 10.1348 494.274 32.5331 497.016 61.788C497.108 62.3366 497.016 62.9765 497.016 64.2564C491.805 61.6052 488.423 59.0454 486.868 53.3772C482.297 36.5557 468.95 24.488 452.677 20.6483C451.854 20.4655 451.031 20.2826 450.117 20.0998C449.568 20.0084 449.02 19.917 448.38 19.8255C443.992 19.1856 439.421 19.0942 434.85 19.7341C433.295 19.917 431.833 20.1912 430.279 20.5569C429.09 20.8312 427.902 21.1969 426.713 21.5625C408.155 27.5964 394.533 45.3321 394.167 65.6277C393.893 82.7236 393.893 99.728 394.167 116.824C394.441 137.851 408.063 155.312 426.987 161.346C428.176 161.712 429.364 162.077 430.553 162.352C434.118 163.175 437.867 163.632 441.706 163.632C443.992 163.632 446.277 163.449 448.471 163.175C449.934 162.992 451.397 162.717 452.86 162.352C473.247 157.324 488.423 139.131 488.88 117.007C488.971 111.064 489.154 105.122 488.788 99.1794C488.697 97.4424 487.508 95.0655 486.046 94.1513C475.989 87.2946 465.75 80.6209 455.419 74.2214C454.231 73.49 451.763 73.49 450.666 74.2214C440.518 80.7123 430.553 87.4775 420.679 94.2427C419.674 94.9741 418.394 96.254 418.394 97.351C418.211 108.596 418.302 119.841 418.302 131.451H472.972C472.607 133.737 472.058 135.474 471.235 136.754C470.504 137.942 469.59 138.674 468.401 139.131C467.304 139.588 465.933 139.771 464.287 139.771H410.349C410.166 137.942 409.983 136.297 409.983 134.742C409.983 121.669 410.074 108.504 409.892 95.4312C409.892 92.5057 410.714 90.7687 413.183 89.1231C425.433 81.1694 437.592 73.0329 449.66 64.7135C452.037 63.0679 453.682 63.0679 456.151 64.6221C468.584 72.85 481.109 80.9866 493.634 89.0317C496.102 90.5858 497.291 92.2314 497.108 95.2483C496.925 104.208 497.565 113.441 496.651 122.492Z" fill="#228C22"/>
<path d="M454.871 95.7968C457.431 95.7968 459.808 95.7968 462.367 95.7968C462.367 98.3566 462.367 100.642 462.367 102.928C454.688 104.939 454.048 104.299 454.871 95.7968Z" fill="#228C22"/>
<path d="M454.688 113.715C454.688 111.064 454.688 108.87 454.688 106.31C457.248 106.31 459.534 106.31 462.185 106.31C462.185 108.687 462.185 110.973 462.185 113.715C459.991 113.715 457.522 113.715 454.688 113.715Z" fill="#228C22"/>
<path d="M444.357 103.293C444.357 100.734 444.357 98.4481 444.357 95.7968C446.826 95.7968 449.111 95.7968 451.763 95.7968C451.763 98.2652 451.763 100.642 451.763 103.293C449.294 103.293 447.009 103.293 444.357 103.293Z" fill="#228C22"/>
<path d="M451.763 113.807C449.203 113.807 446.917 113.807 444.266 113.807C444.266 111.247 444.266 108.87 444.266 106.219C446.826 106.219 449.112 106.219 451.763 106.219C451.763 108.87 451.763 111.156 451.763 113.807Z" fill="#228C22"/>
<path d="M451.854 22.2939C448.471 21.5626 444.997 21.1055 441.341 21.1055C439.329 21.1055 437.227 21.1969 435.124 21.4711C434.667 21.5626 434.301 21.5626 433.844 21.654C451.031 28.0535 463.556 44.3265 464.379 63.5251H472.424C472.241 46.8863 464.196 31.9846 451.854 22.2939ZM370.855 117.372V65.6278C370.855 43.0466 387.036 24.0309 408.429 19.7341C413.64 16.0773 419.582 13.2432 425.982 11.5062C423.788 11.2319 421.502 11.0491 419.217 11.0491H416.108C386.762 11.0491 362.809 35.0015 362.809 64.3479V118.652C362.809 147.999 386.762 171.951 416.108 171.951H419.217C421.502 171.951 423.788 171.768 425.982 171.494C419.765 169.757 413.914 166.923 408.703 163.266C387.219 159.152 370.855 140.045 370.855 117.372Z" fill="#228C22"/>
<path d="M434.941 19.7342C433.387 19.917 431.924 20.1913 430.37 20.5569C426.347 19.4599 422.051 18.8199 417.662 18.8199C416.108 18.8199 414.554 18.9114 413 19.0942C418.302 15.8945 424.153 13.6089 430.461 12.329C436.952 13.7003 442.986 16.3516 448.38 19.917C444.083 19.1856 439.512 19.1856 434.941 19.7342Z" fill="#228C22"/>
<path d="M472.515 63.6165H464.47C463.647 44.418 451.123 28.1449 433.935 21.7454C434.393 21.654 434.758 21.654 435.215 21.5626C437.227 21.2883 439.329 21.1969 441.432 21.1969C445.089 21.1969 448.563 21.5626 451.946 22.3854C464.196 31.9846 472.241 46.8863 472.515 63.6165Z" fill="#228C22"/>
<path d="M408.703 163.357C413.914 167.014 419.674 169.757 425.982 171.585C423.788 171.86 421.502 172.042 419.217 172.042H416.108C386.762 171.951 362.809 147.999 362.809 118.652V64.3479C362.809 35.0015 386.762 11.0491 416.108 11.0491H419.217C421.502 11.0491 423.788 11.2319 425.982 11.5062C419.582 13.3346 413.64 16.0773 408.429 19.7341C387.036 24.0309 370.855 43.0466 370.855 65.6278V117.372C370.855 140.045 387.219 159.152 408.703 163.357Z" fill="#228C22"/>
<path d="M448.472 163.175C443.078 166.74 436.952 169.391 430.461 170.763C424.153 169.483 418.302 167.106 412.909 163.997C414.463 164.18 416.017 164.272 417.662 164.272C422.142 164.272 426.439 163.632 430.553 162.443C434.118 163.266 437.867 163.723 441.706 163.723C443.992 163.632 446.277 163.449 448.472 163.175Z" fill="#228C22"/>
<path d="M470.961 131.268C470.321 133.92 469.498 136.479 468.401 138.948C468.127 139.679 467.761 140.411 467.396 141.142C463.83 148.821 458.436 155.495 451.854 160.615C448.563 161.346 445.18 161.803 441.615 161.803H441.432C438.872 161.803 436.404 161.62 433.935 161.163C443.9 157.415 452.22 150.376 457.705 141.416C458.071 140.776 458.436 140.228 458.802 139.588C460.265 136.937 461.453 134.194 462.368 131.268H470.961Z" fill="#228C22"/>
</g>
<defs>
<clipPath id="clip0_1_303">
<rect width="134.481" height="160.902" fill="white" transform="translate(362.809 11.049)"/>
</clipPath>
</defs>
</svg>
