<svg width="58" height="69" viewBox="0 0 58 69" fill="none" xmlns="http://www.w3.org/2000/svg">
<g id="Frame" clip-path="url(#clip0_19_515)">
<g id="Group">
<path id="Vector" d="M57.724 47.7904C56.4228 60.4142 45.6193 69.5097 32.9232 68.9216C32.3317 68.8824 31.7403 68.8432 31.1489 68.7648C30.4786 68.6864 29.8477 68.5688 29.1774 68.4512C26.4568 67.9023 23.9334 66.883 21.6071 65.55C21.0945 65.2364 20.5425 64.8835 20.0693 64.5307C14.1156 60.2966 10.1727 53.4358 10.0544 45.6341C9.9361 38.1852 9.89667 30.7364 10.0544 23.2875C10.2121 15.4466 14.0761 8.62502 20.0693 4.43014C20.5819 4.07729 21.0945 3.72445 21.6465 3.41082C23.9334 2.03866 26.4568 1.05854 29.1774 0.509681C29.8083 0.392068 30.4392 0.274454 31.07 0.196045L37.6547 3.88127C37.4181 3.84207 37.1815 3.80286 36.9055 3.76366C35.0129 3.48923 33.0415 3.45002 31.07 3.72445C30.3997 3.80286 29.7689 3.92048 29.0986 4.07729C28.586 4.19491 28.0734 4.35173 27.5608 4.50854C19.5568 7.09604 13.6819 14.7017 13.5241 23.4051C13.4059 30.7364 13.4059 38.0284 13.5241 45.3597C13.6424 54.3767 19.5173 61.8648 27.6791 64.4523C28.1917 64.6091 28.7043 64.7659 29.2169 64.8835C30.7546 65.2364 32.3712 65.4324 34.0272 65.4324C35.0129 65.4324 35.9986 65.354 36.9449 65.2364C37.5758 65.158 38.2067 65.0404 38.8375 64.8835C47.6302 62.7273 54.1754 54.9256 54.3725 45.4381C54.412 42.8898 54.4908 40.3415 54.3331 37.7932C54.2937 37.0483 53.7811 36.029 53.1502 35.637C48.8131 32.6966 44.397 29.8347 39.9415 27.0904C39.429 26.7767 38.3644 26.7767 37.8912 27.0904C33.5146 29.8739 29.2169 32.775 24.9585 35.6762C24.5248 35.9898 23.9728 36.5387 23.9728 37.0091C23.894 41.8313 23.9334 46.6534 23.9334 51.6324H47.5119C47.3542 52.6125 47.1176 53.3574 46.7627 53.9063C46.4473 54.4159 46.053 54.7296 45.5405 54.9256C45.4222 55.2392 45.2644 55.5529 45.1067 55.8665C44.7124 55.9449 44.2393 55.9841 43.7662 55.9841H40.9273C41.085 55.7097 41.2427 55.4744 41.4004 55.2H20.5031C20.4242 54.4159 20.3453 53.7102 20.3453 53.0438C20.3453 47.4375 20.3848 41.7921 20.3059 36.1858C20.3059 34.9313 20.6608 34.1864 21.7254 33.4807C27.0088 30.0699 32.2529 26.5807 37.4575 23.0131C38.4827 22.3074 39.1924 22.3074 40.257 22.9739C45.6193 26.5023 51.0211 29.9915 56.4228 33.4415C57.4874 34.108 58 34.8137 57.9211 36.1074C57.8423 39.9494 58.1183 43.9091 57.724 47.7904Z" fill="#E6E6E6"/>
<path id="Vector_2" d="M57.724 47.7905C56.4228 60.4143 45.6193 69.5098 32.9232 68.9217C32.3317 68.8825 31.7403 68.8433 31.1489 68.7649C30.4786 68.6865 29.8477 68.5689 29.1774 68.4513C26.4568 67.9024 23.9334 66.8831 21.6071 65.5501C21.0945 65.2365 20.5425 64.8836 20.0693 64.5308C14.1156 60.2967 10.1727 53.4359 10.0544 45.6342C9.9361 38.1853 9.89667 30.7365 10.0544 23.2876C10.2121 15.4467 14.0761 8.62511 20.0693 4.43022C20.5819 4.07738 21.0945 3.72454 21.6465 3.41091C23.9334 2.03875 26.4568 1.05863 29.1774 0.509769C29.8083 0.392155 30.4392 0.274542 31.07 0.196133C31.8586 0.078519 32.6866 0.0393144 33.5146 0.000109898C45.9742 -0.391936 56.6988 9.21318 57.8817 21.7586C57.9211 21.9939 57.8817 22.2683 57.8817 22.8172C55.6343 21.6802 54.1754 20.5825 53.5051 18.1518C51.5337 10.9382 45.777 5.76318 38.7587 4.11659C38.4038 4.03818 38.0489 3.95977 37.6547 3.88136C37.4181 3.84216 37.1815 3.80295 36.9055 3.76375C35.0129 3.48931 33.0415 3.45011 31.07 3.72454C30.3997 3.80295 29.7689 3.92056 29.0986 4.07738C28.586 4.195 28.0734 4.35181 27.5608 4.50863C19.5568 7.09613 13.6819 14.7018 13.5241 23.4052C13.4059 30.7365 13.4059 38.0285 13.5241 45.3598C13.6424 54.3768 19.5173 61.8649 27.6791 64.4524C28.1917 64.6092 28.7043 64.766 29.2169 64.8836C30.7546 65.2365 32.3712 65.4325 34.0272 65.4325C35.0129 65.4325 35.9986 65.3541 36.9449 65.2365C37.5758 65.1581 38.2067 65.0405 38.8375 64.8836C47.6302 62.7274 54.1754 54.9257 54.3725 45.4382C54.412 42.8899 54.4908 40.3416 54.3331 37.7933C54.2937 37.0484 53.7811 36.0291 53.1502 35.637C48.8131 32.6967 44.397 29.8348 39.9415 27.0905C39.429 26.7768 38.3644 26.7768 37.8912 27.0905C33.5146 29.874 29.2169 32.7751 24.9585 35.6762C24.5248 35.9899 23.9728 36.5387 23.9728 37.0092C23.894 41.8314 23.9334 46.6535 23.9334 51.6325H47.5119C47.3542 52.6126 47.1176 53.3575 46.7627 53.9064C46.4473 54.416 46.053 54.7297 45.5405 54.9257C45.0673 55.1217 44.4759 55.2001 43.7662 55.2001H20.5031C20.4242 54.416 20.3453 53.7103 20.3453 53.0439C20.3453 47.4376 20.3848 41.7922 20.3059 36.1859C20.3059 34.9314 20.6608 34.1865 21.7254 33.4808C27.0088 30.07 32.2529 26.5808 37.4575 23.0132C38.4827 22.3075 39.1924 22.3075 40.257 22.974C45.6193 26.5024 51.0211 29.9916 56.4228 33.4416C57.4874 34.1081 58 34.8137 57.9211 36.1075C57.8423 39.9495 58.1183 43.9092 57.724 47.7905Z" fill="#E6E6E6"/>
<path id="Vector_3" d="M39.705 36.3428C40.809 36.3428 41.8341 36.3428 42.9381 36.3428C42.9381 37.4405 42.9381 38.4206 42.9381 39.4007C39.6261 40.2632 39.3501 39.9888 39.705 36.3428Z" fill="#E6E6E6"/>
<path id="Vector_4" d="M39.6261 44.0269C39.6261 42.89 39.6261 41.949 39.6261 40.8513C40.7301 40.8513 41.7159 40.8513 42.8593 40.8513C42.8593 41.8706 42.8593 42.8508 42.8593 44.0269C41.913 44.0269 40.8484 44.0269 39.6261 44.0269Z" fill="#E6E6E6"/>
<path id="Vector_5" d="M35.1706 39.5575C35.1706 38.4598 35.1706 37.4797 35.1706 36.3428C36.2352 36.3428 37.2209 36.3428 38.3644 36.3428C38.3644 37.4013 38.3644 38.4206 38.3644 39.5575C37.2998 39.5575 36.3141 39.5575 35.1706 39.5575Z" fill="#E6E6E6"/>
<path id="Vector_6" d="M38.3645 44.066C37.2605 44.066 36.2747 44.066 35.1313 44.066C35.1313 42.9683 35.1313 41.9489 35.1313 40.812C36.2353 40.812 37.221 40.812 38.3645 40.812C38.3645 41.9489 38.3645 42.9291 38.3645 44.066Z" fill="#E6E6E6"/>
<path id="Vector_7" d="M38.4038 4.82216C36.9449 4.50852 35.4466 4.3125 33.8695 4.3125C33.002 4.3125 32.0952 4.3517 31.1883 4.46932C30.9912 4.50852 30.8335 4.50852 30.6363 4.54773C38.049 7.29205 43.4507 14.2705 43.8056 22.5034H47.2753C47.1965 15.3682 43.7267 8.97784 38.4038 4.82216ZM3.46976 45.5949V23.4051C3.46976 13.7216 10.4487 5.56705 19.6751 3.72443C21.9225 2.15625 24.4854 0.940909 27.2454 0.196023C26.2991 0.0784091 25.3134 0 24.3277 0H22.9871C10.3304 0 7.62939e-06 10.2716 7.62939e-06 22.8563V46.1437C7.62939e-06 58.7284 10.3304 69 22.9871 69H24.3277C25.3134 69 26.2991 68.9216 27.2454 68.804C24.5642 68.0591 22.0408 66.8438 19.7933 65.2756C10.5275 63.5114 3.46976 55.3176 3.46976 45.5949Z" fill="#E6E6E6"/>
<path id="Vector_8" d="M31.1094 3.72464C30.4391 3.80305 29.8083 3.92066 29.138 4.07748C27.4031 3.60703 25.55 3.33259 23.6574 3.33259C22.9871 3.33259 22.3168 3.3718 21.6465 3.45021C23.9334 2.07805 26.4568 1.09794 29.1774 0.549072C31.9769 1.13714 34.5792 2.27407 36.9055 3.80305C35.0523 3.48941 33.0809 3.48941 31.1094 3.72464Z" fill="#E6E6E6"/>
<path id="Vector_9" d="M47.3148 22.5427H43.845C43.4902 14.3098 38.0884 7.33135 30.6758 4.58703C30.8729 4.54783 31.0306 4.54783 31.2278 4.50862C32.0952 4.39101 33.0021 4.35181 33.9089 4.35181C35.4861 4.35181 36.9844 4.50862 38.4433 4.86147C43.7267 8.97794 47.1965 15.3683 47.3148 22.5427Z" fill="#E6E6E6"/>
<path id="Vector_10" d="M19.7933 65.3148C22.0408 66.883 24.5248 68.0591 27.2454 68.8432C26.2991 68.9608 25.3134 69.0392 24.3277 69.0392H22.9871C10.3304 69 7.62939e-06 58.7284 7.62939e-06 46.1437V22.8563C7.62939e-06 10.2716 10.3304 0 22.9871 0H24.3277C25.3134 0 26.2991 0.0784091 27.2454 0.196023C24.4854 0.980114 21.9225 2.15625 19.6751 3.72443C10.4487 5.56705 3.46976 13.7216 3.46976 23.4051V45.5949C3.46976 55.3176 10.5275 63.5114 19.7933 65.3148Z" fill="#E6E6E6"/>
<path id="Vector_11" d="M36.945 65.2365C34.6187 66.7655 31.9769 67.9024 29.1775 68.4905C26.4569 67.9416 23.9334 66.9223 21.6071 65.5893C22.2774 65.6677 22.9477 65.7069 23.6574 65.7069C25.5894 65.7069 27.4426 65.4325 29.2169 64.9229C30.7546 65.2757 32.3712 65.4717 34.0272 65.4717C35.013 65.4325 35.9987 65.3541 36.945 65.2365Z" fill="#E6E6E6"/>
<path id="Vector_12" d="M46.6445 51.5542C46.3685 52.6911 46.0136 53.7889 45.5405 54.8474C45.4222 55.161 45.2645 55.4747 45.1067 55.7883C43.569 59.0815 41.2427 61.9434 38.4038 64.1389C36.9844 64.4525 35.5255 64.6485 33.9878 64.6485H33.9089C32.8049 64.6485 31.7403 64.5701 30.6758 64.3741C34.9735 62.7667 38.5615 59.748 40.9273 55.9059C41.085 55.6315 41.2427 55.3962 41.4004 55.1218C42.0313 53.9849 42.5439 52.8087 42.9382 51.5542H46.6445Z" fill="#E6E6E6"/>
</g>
</g>
<defs>
<clipPath id="clip0_19_515">
<rect width="58" height="69" fill="white"/>
</clipPath>
</defs>
</svg>
